<svg xmlns="http://www.w3.org/2000/svg" viewBox="0 0 400 84.61538461538461" clip-path="url(#clip)" width="772.5" height="163.41346153846155" style="max-height: 632px;"><defs><clipPath id="clip" clipPathUnits="objectBoundingBox"><rect x="0" y="0" width="400" height="84.61538461538461"/></clipPath></defs><rect x="0" y="0" width="400" height="84.61538461538461" fill="rgb(129, 116, 18)"/><filter id="g0.6"><feGaussianBlur stdDeviation="0.6"/></filter><filter id="g1"><feGaussianBlur stdDeviation="1"/></filter><filter id="g10"><feGaussianBlur stdDeviation="10"/></filter><path d="M216,32L213,328L398,329L401,33Z" fill="rgb(57, 65, 28)" fill-opacity="0.50" filter="url(#g10)"/><path d="M168,21L-2,49L40,297L210,269Z" fill="rgb(62, 67, 28)" fill-opacity="0.50"/><path d="M168,2L471,26L484,-139L181,-163Z" fill="rgb(207, 163, 0)" fill-opacity="0.50" filter="url(#g1)"/><path d="M5,74L15,176L257,150L247,48Z" fill="rgb(135, 136, 31)" fill-opacity="0.50" filter="url(#g10)"/><path d="M140,34L136,54L213,66L217,46Z" fill="rgb(46, 47, 25)" fill-opacity="0.50" filter="url(#g10)"/><path d="M88,32L204,47L233,-175L117,-190Z" fill="rgb(137, 112, 5)" fill-opacity="0.50"/><path d="M53,29L-2,52L8,75L63,52Z" fill="rgb(34, 32, 15)" fill-opacity="0.50"/><path d="M187,42L252,48L275,-177L210,-183Z" fill="rgb(155, 129, 8)" fill-opacity="0.50" filter="url(#g10)"/><path d="M71,58L-18,79L22,241L111,220Z" fill="rgb(160, 152, 22)" fill-opacity="0.50" filter="url(#g10)"/><path d="M332,78L477,165L514,102L369,15Z" fill="rgb(70, 68, 16)" fill-opacity="0.50"/><path d="M83,40L-43,60L-39,80L86,60Z" fill="rgb(27, 28, 22)" fill-opacity="0.50"/><path d="M304,24L359,40L391,-71L336,-87Z" fill="rgb(183, 151, 6)" fill-opacity="0.50" filter="url(#g1)"/><path d="M388,46L449,41L434,-181L373,-176Z" fill="rgb(208, 171, 5)" fill-opacity="0.50" filter="url(#g1)"/><path d="M181,63L179,84L409,100L411,79Z" fill="rgb(112, 114, 32)" fill-opacity="0.50" filter="url(#g10)"/><path d="M203,56L203,60L352,39L352,35Z" fill="rgb(52, 53, 37)" fill-opacity="0.50" filter="url(#g1)"/><path d="M157,35L65,47L67,67L159,55Z" fill="rgb(31, 34, 31)" fill-opacity="0.50" filter="url(#g1)"/><path d="M12,42L198,43L199,-132L13,-133Z" fill="rgb(124, 105, 9)" fill-opacity="0.50"/><path d="M94,38L-161,58L-159,73L95,53Z" fill="rgb(38, 38, 25)" fill-opacity="0.50" filter="url(#g1)"/><path d="M1,21L97,27L105,-102L9,-108Z" fill="rgb(101, 82, 8)" fill-opacity="0.50"/><path d="M194,53L194,137L285,136L285,52Z" fill="rgb(113, 112, 26)" fill-opacity="0.50" filter="url(#g1)"/><path d="M132,40L132,59L228,56L228,37Z" fill="rgb(52, 54, 27)" fill-opacity="0.50" filter="url(#g10)"/><path d="M330,41L330,71L460,69L460,39Z" fill="rgb(69, 66, 16)" fill-opacity="0.50" filter="url(#g10)"/><path d="M221,37L220,43L250,47L251,41Z" fill="rgb(197, 175, 12)" fill-opacity="0.50"/><path d="M162,58L170,189L266,183L258,52Z" fill="rgb(117, 115, 27)" fill-opacity="0.50" filter="url(#g10)"/><path d="M2,70L-12,187L71,197L85,80Z" fill="rgb(161, 155, 27)" fill-opacity="0.50"/><path d="M203,24L328,35L332,-20L207,-31Z" fill="rgb(149, 124, 8)" fill-opacity="0.50"/><path d="M174,20L2,30L3,45L175,35Z" fill="rgb(154, 135, 12)" fill-opacity="0.50"/><path d="M49,7L246,22L267,-246L70,-261Z" fill="rgb(139, 114, 11)" fill-opacity="0.50"/><path d="M66,28L174,28L174,-213L66,-213Z" fill="rgb(115, 97, 11)" fill-opacity="0.50"/><path d="M151,36L203,49L229,-49L177,-62Z" fill="rgb(142, 122, 12)" fill-opacity="0.50"/><path d="M239,23L238,26L321,50L322,47Z" fill="rgb(65, 60, 22)" fill-opacity="0.50"/><path d="M151,75L79,246L375,370L447,199Z" fill="rgb(63, 66, 27)" fill-opacity="0.50"/><path d="M104,79L80,231L375,276L399,124Z" fill="rgb(53, 56, 25)" fill-opacity="0.50"/><path d="M249,0L278,41L328,4L299,-36Z" fill="rgb(163, 137, 10)" fill-opacity="0.50"/></svg>