<svg xmlns="http://www.w3.org/2000/svg" viewBox="0 0 400 271.97802197802196" clip-path="url(#clip)" width="772.5" height="525.257554945055" style="max-height: 920px;"><defs><clipPath id="clip" clipPathUnits="objectBoundingBox"><rect x="0" y="0" width="400" height="271.97802197802196"/></clipPath></defs><rect x="0" y="0" width="400" height="271.97802197802196" fill="rgb(103, 103, 54)"/><filter id="g0.6"><feGaussianBlur stdDeviation="0.6"/></filter><filter id="g1"><feGaussianBlur stdDeviation="1"/></filter><filter id="g10"><feGaussianBlur stdDeviation="10"/></filter><path d="M66,43L158,230L394,113L302,-73Z" fill="rgb(156, 135, 24)" fill-opacity="0.50"/><path d="M173,130L162,299L397,312L408,143Z" fill="rgb(57, 65, 3)" fill-opacity="0.50" filter="url(#g10)"/><path d="M54,48L468,22L457,-140L43,-114Z" fill="rgb(155, 164, 146)" fill-opacity="0.50"/><path d="M177,5L-55,49L-18,235L213,191Z" fill="rgb(135, 113, 0)" fill-opacity="0.50"/><path d="M227,236L-55,237L-53,380L228,379Z" fill="rgb(5, 23, 10)" fill-opacity="0.50" filter="url(#g10)"/><path d="M113,114L532,161L538,102L119,55Z" fill="rgb(184, 146, 0)" fill-opacity="0.50"/><path d="M180,12L171,45L397,103L406,70Z" fill="rgb(63, 76, 87)" fill-opacity="0.50" filter="url(#g10)"/><path d="M0,26L-4,48L434,132L438,110Z" fill="rgb(224, 178, 0)" fill-opacity="0.50"/><path d="M283,237L279,351L472,356L476,242Z" fill="rgb(10, 23, 20)" fill-opacity="0.50"/><path d="M75,66L51,225L264,255L288,96Z" fill="rgb(109, 105, 22)" fill-opacity="0.50" filter="url(#g1)"/><path d="M0,21L447,16L446,-66L0,-61Z" fill="rgb(183, 182, 126)" fill-opacity="0.50" filter="url(#g10)"/><path d="M54,120L45,166L419,237L428,191Z" fill="rgb(97, 98, 28)" fill-opacity="0.50"/><path d="M22,109L20,165L163,168L165,112Z" fill="rgb(84, 70, 10)" fill-opacity="0.50" filter="url(#g10)"/><path d="M90,34L-264,65L-260,102L93,71Z" fill="rgb(183, 140, 2)" fill-opacity="0.50" filter="url(#g1)"/><path d="M55,252L55,276L288,273L288,249Z" fill="rgb(28, 40, 25)" fill-opacity="0.50"/><path d="M378,109L345,149L482,261L515,221Z" fill="rgb(79, 71, 9)" fill-opacity="0.50"/><path d="M128,117L126,140L251,149L253,126Z" fill="rgb(162, 135, 5)" fill-opacity="0.50" filter="url(#g10)"/><path d="M257,27L396,71L402,51L263,7Z" fill="rgb(92, 102, 97)" fill-opacity="0.50" filter="url(#g1)"/><path d="M110,14L105,48L359,78L364,44Z" fill="rgb(86, 94, 82)" fill-opacity="0.50" filter="url(#g10)"/><path d="M90,81L-67,102L-59,159L97,138Z" fill="rgb(138, 112, 0)" fill-opacity="0.50"/><path d="M391,141L514,109L503,69L380,101Z" fill="rgb(214, 177, 1)" fill-opacity="0.50" filter="url(#g1)"/><path d="M201,176L145,224L176,259L232,211Z" fill="rgb(100, 111, 44)" fill-opacity="0.50"/><path d="M70,154L70,163L332,152L332,143Z" fill="rgb(29, 33, 36)" fill-opacity="0.50"/><path d="M239,171L236,205L367,213L370,179Z" fill="rgb(123, 124, 31)" fill-opacity="0.50"/><path d="M80,144L79,162L173,163L174,145Z" fill="rgb(28, 33, 32)" fill-opacity="0.50"/><path d="M199,243L201,266L401,245L399,222Z" fill="rgb(55, 65, 29)" fill-opacity="0.50" filter="url(#g1)"/><path d="M47,125L254,154L262,92L55,63Z" fill="rgb(143, 115, 6)" fill-opacity="0.50"/><path d="M39,192L138,230L148,203L49,165Z" fill="rgb(145, 152, 39)" fill-opacity="0.50" filter="url(#g0.6)"/><path d="M290,219L288,223L638,364L640,360Z" fill="rgb(0, 0, 15)" fill-opacity="0.50" filter="url(#g0.6)"/><path d="M89,217L40,440L92,451L141,228Z" fill="rgb(54, 66, 28)" fill-opacity="0.50"/><path d="M360,136L372,147L387,130L375,119Z" fill="rgb(20, 28, 26)" fill-opacity="0.50"/><path d="M36,240L32,283L454,313L458,270Z" fill="rgb(39, 49, 25)" fill-opacity="0.50"/><path d="M7,87L109,152L124,128L22,63Z" fill="rgb(125, 105, 8)" fill-opacity="0.50" filter="url(#g1)"/><path d="M180,30L295,41L301,-22L186,-33Z" fill="rgb(139, 145, 104)" fill-opacity="0.50"/></svg>